<svg xmlns="http://www.w3.org/2000/svg" enable-background="new 0 0 24 24" viewBox="0 0 24 24"><path fill="#6766DB" d="M21.25,24h-7.031c-0.133,0-0.261-0.053-0.354-0.147l-6.17-6.201c-0.194-0.195-0.194-0.511,0-0.706l6.171-6.188c0.094-0.094,0.222-0.148,0.355-0.148h7.029c0.202,0,0.384,0.122,0.462,0.308c0.077,0.187,0.035,0.401-0.107,0.544l-5.81,5.838l5.81,5.846c0.143,0.144,0.185,0.358,0.107,0.544C21.634,23.878,21.452,24,21.25,24z"/><path fill="#110638" d="M6.278,16.046c-0.133,0-0.261-0.053-0.354-0.147l-3.528-3.546c-0.194-0.195-0.194-0.51,0-0.706l11.457-11.5c0.125-0.125,0.3-0.169,0.459-0.136h6.923c0.202,0,0.384,0.122,0.462,0.308c0.077,0.187,0.035,0.401-0.107,0.544L6.633,15.899C6.539,15.993,6.412,16.046,6.278,16.046z M3.456,12l2.823,2.837L20.032,1.011h-5.629L3.456,12z"/></svg>